# xmcd
#
# Track frame offsets:
#	150
#	17027
#	32545
#	45902
#	61565
#	76697
#	96395
#	113652
#	130262
#	146210
#	160525
#	180695
#	199660
#	218740
#	229932
#	242242
#	269337
#	285582
#	308127
#	335120
#
# Disc length: 4694 seconds
#
# Revision: 3
# Processed by: cddbd v1.5.2PL0 Copyright (c) Steve Scherf et al.
# Submitted via: EasyCDDAExtractor 15.3.0.1
#
DISCID=11125414
DTITLE=Cher - Blue - The All-Time Great Love Songs
DYEAR=1995
DGENRE=Pop
TTITLE0=Am I Blue
TTITLE1=By Myself
TTITLE2=Fire And Rain
TTITLE3=He Ain't Heavy, He's My Brother
TTITLE4=How Can You Mend A Broken Heart
TTITLE5=How Long Has This Been Going On
TTITLE6=I Got It Bad (And That Ain't Good)
TTITLE7=More Than You Know
TTITLE8=My Love
TTITLE9=The Long And Winding Road
TTITLE10=The Man I Love
TTITLE11=Jolson Medley (Sonny Boy, My Mammy, Rock A Bye Your Baby)
TTITLE12=The Man That Got Away
TTITLE13=What'll I Do
TTITLE14=Why Was I Born
TTITLE15=Danny Boy (Live)
TTITLE16=I Can See Clearly Now
TTITLE17=You And I (Live)
TTITLE18=You've Got A Friend, Where You Lead (Live)
TTITLE19=It Never Rains In Southern California
EXTD=
EXTT0=
EXTT1=
EXTT2=
EXTT3=
EXTT4=
EXTT5=
EXTT6=
EXTT7=
EXTT8=
EXTT9=
EXTT10=
EXTT11=
EXTT12=
EXTT13=
EXTT14=
EXTT15=
EXTT16=
EXTT17=
EXTT18=
EXTT19=
PLAYORDER=
